<?xml version="1.0" standalone="no"?>
<!DOCTYPE svg PUBLIC "-//W3C//DTD SVG 20010904//EN"
 "http://www.w3.org/TR/2001/REC-SVG-20010904/DTD/svg10.dtd">
<svg version="1.0" xmlns="http://www.w3.org/2000/svg"
 width="190.000000pt" height="199.000000pt" viewBox="0 0 190.000000 199.000000"
 preserveAspectRatio="xMidYMid meet">
<metadata>
Created by potrace 1.10, written by Peter Selinger 2001-2011
</metadata>
<g transform="translate(0.000000,199.000000) scale(0.100000,-0.100000)"
fill="#000000" stroke="none">
<path d="M1000 1801 c-20 -4 -153 -71 -295 -149 -284 -155 -308 -174 -364
-292 -37 -79 -37 -183 1 -260 46 -94 100 -135 411 -315 158 -92 291 -165 296
-163 21 8 280 164 280 168 0 3 -64 42 -142 87 -78 44 -236 135 -351 202 -116
67 -213 121 -218 121 -4 0 -8 15 -8 33 0 29 6 36 43 57 23 13 117 67 210 121
l167 99 118 -67 c64 -36 185 -104 267 -151 83 -46 189 -107 238 -135 48 -27
90 -48 92 -45 3 3 10 31 16 64 19 103 -5 196 -71 276 -35 43 -162 122 -409
255 -175 94 -216 108 -281 94z m227 -102 c76 -40 143 -75 148 -79 6 -5 26 -17
45 -27 202 -114 256 -157 291 -237 26 -62 29 -173 5 -182 -8 -3 -79 31 -158
76 -79 45 -165 95 -193 110 -27 15 -67 37 -87 49 -21 11 -55 31 -75 42 -21 12
-66 37 -101 55 -63 34 -63 34 -105 17 -23 -9 -46 -19 -52 -23 -25 -19 -289
-170 -296 -170 -4 0 -21 -14 -38 -31 -39 -38 -42 -85 -8 -117 19 -18 262 -162
497 -294 89 -50 150 -90 150 -98 0 -8 -103 -80 -114 -80 -4 0 -25 -12 -47 -27
l-41 -27 -46 26 c-26 14 -119 67 -207 118 -88 51 -169 98 -180 104 -11 7 -45
26 -76 44 -67 38 -138 111 -169 173 -35 67 -32 148 6 229 29 59 112 160 132
160 5 0 58 27 118 61 60 34 169 92 241 130 176 92 179 92 360 -2z"/>
<path d="M901 1314 l-144 -86 114 -67 c63 -37 226 -132 362 -211 317 -185 313
-161 52 -312 -104 -60 -199 -114 -210 -119 -17 -9 -77 22 -364 186 -189 108
-349 199 -356 201 -9 4 -16 -15 -25 -60 -21 -111 4 -206 74 -283 35 -39 99
-79 421 -262 l150 -86 70 2 c70 1 71 1 325 138 283 151 315 176 372 293 28 56
33 78 33 137 0 59 -5 81 -32 135 -18 36 -49 81 -70 101 -28 27 -613 381 -626
379 -1 -1 -67 -39 -146 -86z m199 16 c14 -11 29 -20 33 -20 5 0 21 -8 35 -19
15 -10 47 -29 72 -42 167 -90 392 -233 423 -270 78 -90 98 -194 58 -299 -24
-63 -96 -148 -147 -175 -22 -11 -64 -34 -94 -51 -54 -30 -222 -120 -329 -176
-88 -45 -142 -40 -255 24 -50 28 -120 67 -156 87 -36 19 -105 59 -154 88 -49
29 -92 53 -95 53 -4 0 -26 19 -48 43 -60 60 -83 117 -83 205 0 85 3 87 87 38
32 -18 78 -45 103 -58 25 -14 74 -42 110 -63 215 -125 362 -205 384 -211 22
-5 64 15 232 111 112 64 211 127 219 138 20 29 19 70 -3 95 -10 11 -56 43
-103 70 -46 26 -115 67 -153 90 -37 23 -70 42 -72 42 -3 0 -248 143 -301 176
-13 8 -23 18 -23 22 0 14 185 122 210 122 14 0 36 -9 50 -20z"/>
</g>
</svg>
